<svg xmlns="http://www.w3.org/2000/svg" xmlns:xlink="http://www.w3.org/1999/xlink" width="500" zoomAndPan="magnify" viewBox="0 0 375 374.999991" height="500" preserveAspectRatio="xMidYMid meet" version="1.0"><defs><g><g id="id1"/><g id="id2"/><g id="id3"/><g id="id4"/><g id="id5"/><g id="id6"/><g id="id7"/><g id="id8"/><g id="id9"/><g id="id10"/><g id="id11"/><g id="id12"/><g id="id13"/><g id="id14"/><g id="id15"/><g id="id16"/><g id="id17"/><g id="id18"/></g><clipPath id="id19"><path d="M 8.679688 1.484375 L 366.429688 1.484375 L 366.429688 119.984375 L 8.679688 119.984375 Z M 8.679688 1.484375 " clip-rule="nonzero"/></clipPath><clipPath id="id20"><path d="M 8.679688 254.597656 L 366.429688 254.597656 L 366.429688 372.839844 L 8.679688 372.839844 Z M 8.679688 254.597656 " clip-rule="nonzero"/></clipPath><clipPath id="id21"><path d="M 93.683594 95.226562 L 281.183594 95.226562 L 281.183594 285.726562 L 93.683594 285.726562 Z M 93.683594 95.226562 " clip-rule="nonzero"/></clipPath><clipPath id="id22"><path d="M 286.878906 161.0625 L 374.628906 161.0625 L 374.628906 163 L 286.878906 163 Z M 286.878906 161.0625 " clip-rule="nonzero"/></clipPath><clipPath id="id23"><path d="M 286.878906 213 L 374.628906 213 L 374.628906 214.3125 L 286.878906 214.3125 Z M 286.878906 213 " clip-rule="nonzero"/></clipPath><clipPath id="id24"><path d="M 0.878906 161.0625 L 87.878906 161.0625 L 87.878906 163 L 0.878906 163 Z M 0.878906 161.0625 " clip-rule="nonzero"/></clipPath><clipPath id="id25"><path d="M 0.878906 212 L 87.878906 212 L 87.878906 213.5625 L 0.878906 213.5625 Z M 0.878906 212 " clip-rule="nonzero"/></clipPath></defs><g clip-path="url(#id19)"><path fill="rgb(0%, 0%, 0%)" d="M 365.542969 89.660156 C 364.277344 87.589844 363.597656 85.339844 363.5 82.914062 C 363.398438 80.570312 363.945312 78.390625 365.140625 76.371094 L 365.679688 75.492188 L 364.855469 74.660156 C 361.953125 71.765625 358.980469 68.945312 355.941406 66.195312 C 352.898438 63.449219 349.792969 60.773438 346.621094 58.179688 C 343.449219 55.582031 340.214844 53.066406 336.917969 50.625 C 333.621094 48.1875 330.269531 45.832031 326.855469 43.558594 C 323.445312 41.285156 319.976562 39.097656 316.457031 36.992188 C 312.9375 34.886719 309.371094 32.871094 305.75 30.941406 C 302.132812 29.011719 298.46875 27.171875 294.757812 25.421875 C 291.046875 23.671875 287.296875 22.015625 283.507812 20.449219 C 279.714844 18.882812 275.886719 17.410156 272.023438 16.03125 C 268.160156 14.652344 264.265625 13.367188 260.339844 12.179688 C 256.410156 10.992188 252.457031 9.902344 248.476562 8.90625 C 244.496094 7.914062 240.492188 7.015625 236.46875 6.21875 C 232.445312 5.417969 228.402344 4.71875 224.34375 4.121094 C 220.285156 3.519531 216.214844 3.019531 212.128906 2.617188 C 208.046875 2.214844 203.953125 1.914062 199.855469 1.714844 C 195.757812 1.511719 191.65625 1.414062 187.554688 1.414062 C 183.449219 1.414062 179.347656 1.511719 175.25 1.714844 C 171.152344 1.914062 167.058594 2.214844 162.976562 2.617188 C 158.894531 3.019531 154.820312 3.519531 150.761719 4.121094 C 146.703125 4.71875 142.660156 5.417969 138.636719 6.21875 C 134.613281 7.015625 130.609375 7.914062 126.628906 8.90625 C 122.648438 9.902344 118.695312 10.992188 114.769531 12.179688 C 110.839844 13.367188 106.945312 14.652344 103.082031 16.03125 C 99.21875 17.410156 95.390625 18.882812 91.601562 20.449219 C 87.808594 22.015625 84.058594 23.671875 80.347656 25.421875 C 76.640625 27.171875 72.972656 29.011719 69.355469 30.941406 C 65.738281 32.871094 62.167969 34.886719 58.648438 36.992188 C 55.128906 39.097656 51.660156 41.285156 48.25 43.558594 C 44.835938 45.832031 41.484375 48.1875 38.1875 50.625 C 34.890625 53.066406 31.65625 55.582031 28.484375 58.179688 C 25.3125 60.773438 22.207031 63.449219 19.164062 66.195312 C 16.125 68.945312 13.152344 71.765625 10.25 74.660156 L 9.425781 75.492188 L 9.960938 76.378906 C 11.15625 78.398438 11.703125 80.578125 11.601562 82.921875 C 11.503906 85.347656 10.820312 87.59375 9.550781 89.664062 L 8.96875 90.621094 L 9.730469 91.308594 L 40.164062 118.789062 L 40.929688 119.472656 L 41.703125 118.953125 C 43.453125 117.785156 45.382812 117.253906 47.488281 117.363281 C 49.695312 117.472656 51.710938 118.152344 53.53125 119.410156 L 54.378906 119.980469 L 54.996094 119.359375 C 57.164062 117.191406 59.382812 115.082031 61.65625 113.027344 C 63.929688 110.972656 66.253906 108.972656 68.625 107.03125 C 70.996094 105.089844 73.414062 103.207031 75.878906 101.382812 C 78.34375 99.558594 80.851562 97.796875 83.402344 96.097656 C 85.953125 94.394531 88.542969 92.757812 91.175781 91.183594 C 93.804688 89.609375 96.476562 88.101562 99.179688 86.660156 C 101.886719 85.214844 104.625 83.839844 107.398438 82.53125 C 110.171875 81.222656 112.976562 79.980469 115.8125 78.808594 C 118.648438 77.640625 121.507812 76.539062 124.398438 75.507812 C 127.285156 74.476562 130.199219 73.515625 133.136719 72.625 C 136.070312 71.738281 139.027344 70.921875 142.003906 70.175781 C 144.980469 69.433594 147.972656 68.761719 150.980469 68.164062 C 153.992188 67.570312 157.015625 67.046875 160.046875 66.597656 C 163.082031 66.148438 166.128906 65.773438 169.179688 65.472656 C 172.234375 65.171875 175.292969 64.945312 178.359375 64.796875 C 181.421875 64.648438 184.488281 64.570312 187.558594 64.570312 C 190.625 64.570312 193.691406 64.648438 196.757812 64.796875 C 199.820312 64.945312 202.882812 65.171875 205.933594 65.472656 C 208.988281 65.773438 212.03125 66.148438 215.066406 66.597656 C 218.101562 67.046875 221.125 67.570312 224.132812 68.164062 C 227.144531 68.761719 230.136719 69.433594 233.113281 70.175781 C 236.089844 70.921875 239.046875 71.738281 241.980469 72.625 C 244.917969 73.515625 247.828125 74.476562 250.71875 75.507812 C 253.609375 76.539062 256.46875 77.640625 259.304688 78.808594 C 262.136719 79.980469 264.941406 81.222656 267.714844 82.53125 C 270.488281 83.839844 273.230469 85.214844 275.933594 86.660156 C 278.640625 88.101562 281.308594 89.609375 283.941406 91.183594 C 286.574219 92.757812 289.164062 94.394531 291.714844 96.097656 C 294.265625 97.796875 296.773438 99.558594 299.238281 101.382812 C 301.703125 103.207031 304.121094 105.089844 306.492188 107.03125 C 308.863281 108.972656 311.183594 110.972656 313.457031 113.027344 C 315.730469 115.082031 317.953125 117.191406 320.121094 119.359375 L 320.742188 119.984375 L 321.585938 119.410156 C 323.402344 118.152344 325.417969 117.472656 327.625 117.363281 C 329.730469 117.253906 331.660156 117.78125 333.414062 118.945312 L 334.191406 119.476562 L 334.957031 118.792969 L 365.378906 91.3125 L 366.140625 90.625 Z M 365.542969 89.660156 " fill-opacity="1" fill-rule="nonzero"/></g><g clip-path="url(#id20)"><path fill="rgb(0%, 0%, 0%)" d="M 365.542969 284.921875 C 364.277344 286.992188 363.597656 289.242188 363.5 291.667969 C 363.398438 294.011719 363.945312 296.191406 365.140625 298.210938 L 365.679688 299.089844 L 364.855469 299.921875 C 361.953125 302.816406 358.980469 305.636719 355.941406 308.386719 C 352.898438 311.132812 349.792969 313.808594 346.621094 316.402344 C 343.449219 319 340.214844 321.515625 336.917969 323.957031 C 333.621094 326.394531 330.269531 328.75 326.855469 331.023438 C 323.445312 333.296875 319.976562 335.484375 316.457031 337.589844 C 312.9375 339.695312 309.371094 341.710938 305.75 343.640625 C 302.132812 345.570312 298.46875 347.410156 294.757812 349.160156 C 291.046875 350.910156 287.296875 352.566406 283.507812 354.132812 C 279.714844 355.699219 275.886719 357.171875 272.023438 358.550781 C 268.160156 359.929688 264.265625 361.214844 260.339844 362.402344 C 256.410156 363.589844 252.457031 364.679688 248.476562 365.675781 C 244.496094 366.667969 240.492188 367.566406 236.46875 368.363281 C 232.445312 369.164062 228.402344 369.863281 224.34375 370.460938 C 220.285156 371.0625 216.214844 371.5625 212.128906 371.964844 C 208.046875 372.367188 203.953125 372.667969 199.855469 372.867188 C 195.757812 373.070312 191.65625 373.167969 187.554688 373.167969 C 183.449219 373.167969 179.347656 373.070312 175.25 372.867188 C 171.152344 372.667969 167.058594 372.367188 162.976562 371.964844 C 158.894531 371.5625 154.820312 371.0625 150.761719 370.460938 C 146.703125 369.863281 142.660156 369.164062 138.636719 368.363281 C 134.613281 367.566406 130.609375 366.667969 126.628906 365.675781 C 122.648438 364.679688 118.695312 363.589844 114.769531 362.402344 C 110.839844 361.214844 106.945312 359.929688 103.082031 358.550781 C 99.21875 357.171875 95.390625 355.699219 91.601562 354.132812 C 87.808594 352.566406 84.058594 350.910156 80.347656 349.160156 C 76.640625 347.410156 72.972656 345.570312 69.355469 343.640625 C 65.738281 341.710938 62.167969 339.695312 58.648438 337.589844 C 55.128906 335.484375 51.660156 333.296875 48.25 331.023438 C 44.835938 328.75 41.484375 326.394531 38.1875 323.957031 C 34.890625 321.515625 31.65625 319 28.484375 316.402344 C 25.3125 313.808594 22.207031 311.132812 19.164062 308.386719 C 16.125 305.636719 13.152344 302.816406 10.25 299.921875 L 9.425781 299.089844 L 9.960938 298.203125 C 11.15625 296.183594 11.703125 294.003906 11.601562 291.660156 C 11.503906 289.234375 10.820312 286.988281 9.550781 284.917969 L 8.96875 283.960938 L 9.730469 283.273438 L 40.164062 255.792969 L 40.929688 255.109375 L 41.703125 255.628906 C 43.453125 256.796875 45.382812 257.328125 47.488281 257.21875 C 49.695312 257.109375 51.710938 256.429688 53.53125 255.171875 L 54.378906 254.601562 L 54.996094 255.222656 C 57.164062 257.390625 59.382812 259.5 61.65625 261.554688 C 63.929688 263.609375 66.253906 265.609375 68.625 267.550781 C 70.996094 269.492188 73.414062 271.375 75.878906 273.199219 C 78.34375 275.023438 80.851562 276.785156 83.402344 278.484375 C 85.953125 280.1875 88.542969 281.824219 91.175781 283.398438 C 93.804688 284.972656 96.476562 286.480469 99.179688 287.921875 C 101.886719 289.367188 104.625 290.742188 107.398438 292.050781 C 110.171875 293.359375 112.976562 294.601562 115.8125 295.773438 C 118.648438 296.941406 121.507812 298.042969 124.398438 299.074219 C 127.285156 300.105469 130.199219 301.066406 133.136719 301.957031 C 136.070312 302.84375 139.027344 303.660156 142.003906 304.40625 C 144.980469 305.148438 147.972656 305.820312 150.980469 306.417969 C 153.992188 307.011719 157.015625 307.535156 160.046875 307.984375 C 163.082031 308.433594 166.128906 308.808594 169.179688 309.109375 C 172.234375 309.410156 175.292969 309.636719 178.359375 309.785156 C 181.421875 309.933594 184.488281 310.011719 187.558594 310.011719 C 190.625 310.011719 193.691406 309.933594 196.757812 309.785156 C 199.820312 309.636719 202.882812 309.410156 205.933594 309.109375 C 208.988281 308.808594 212.03125 308.433594 215.066406 307.984375 C 218.101562 307.535156 221.125 307.011719 224.132812 306.417969 C 227.144531 305.820312 230.136719 305.148438 233.113281 304.40625 C 236.089844 303.660156 239.046875 302.84375 241.980469 301.957031 C 244.917969 301.066406 247.828125 300.105469 250.71875 299.074219 C 253.609375 298.042969 256.46875 296.941406 259.304688 295.773438 C 262.136719 294.601562 264.941406 293.359375 267.714844 292.050781 C 270.488281 290.742188 273.230469 289.367188 275.933594 287.921875 C 278.640625 286.480469 281.308594 284.972656 283.941406 283.398438 C 286.574219 281.824219 289.164062 280.1875 291.714844 278.484375 C 294.265625 276.785156 296.773438 275.023438 299.238281 273.199219 C 301.703125 271.375 304.121094 269.492188 306.492188 267.550781 C 308.863281 265.609375 311.183594 263.609375 313.457031 261.554688 C 315.730469 259.5 317.953125 257.390625 320.121094 255.222656 L 320.742188 254.597656 L 321.585938 255.171875 C 323.402344 256.429688 325.417969 257.109375 327.625 257.21875 C 329.730469 257.328125 331.660156 256.800781 333.414062 255.636719 L 334.191406 255.105469 L 334.957031 255.789062 L 365.378906 283.269531 L 366.140625 283.957031 Z M 365.542969 284.921875 " fill-opacity="1" fill-rule="nonzero"/></g><g clip-path="url(#id21)"><path fill="rgb(0%, 0%, 0%)" d="M 242.851562 123.597656 C 248.90625 123.597656 258.464844 113.71875 266.433594 117.863281 C 247.949219 74.871094 209.425781 113.722656 187.429688 95.886719 C 165.4375 113.722656 126.917969 74.875 108.429688 117.863281 C 116.398438 113.722656 125.960938 123.597656 132.015625 123.597656 C 121.175781 127.097656 74.644531 149.074219 102.375 195.570312 C 102.375 195.570312 103.328125 186.972656 106.515625 182.835938 C 106.832031 193.339844 108.109375 218.1875 121.816406 229.011719 C 121.816406 229.011719 121.503906 216.273438 128.507812 212.136719 C 128.195312 221.367188 133.929688 253.535156 159.113281 267.867188 C 159.113281 267.867188 158.152344 255.445312 164.207031 249.398438 C 165.164062 260.863281 167.671875 275.832031 187.433594 285.0625 C 207.199219 275.832031 209.707031 260.863281 210.664062 249.398438 C 216.71875 255.445312 215.761719 267.867188 215.761719 267.867188 C 240.941406 253.535156 246.679688 221.367188 246.363281 212.136719 C 253.375 216.273438 253.058594 229.011719 253.058594 229.011719 C 266.765625 218.191406 268.039062 193.34375 268.355469 182.835938 C 271.542969 186.972656 272.5 195.570312 272.5 195.570312 C 300.21875 149.074219 253.6875 127.097656 242.851562 123.597656 Z M 257.949219 111.015625 C 251.734375 110.417969 248.148438 120.570312 231.296875 118.894531 C 240.019531 116.507812 244.320312 108.746094 249.9375 109.460938 C 241.214844 105.28125 231.304688 115.792969 222.445312 115.792969 C 220.402344 115.835938 218.378906 115.628906 216.386719 115.171875 C 214.390625 114.714844 212.480469 114.023438 210.65625 113.097656 C 208.832031 112.171875 207.148438 111.035156 205.605469 109.691406 C 204.0625 108.351562 202.703125 106.839844 201.53125 105.164062 C 212.289062 108.148438 247.070312 91.789062 257.949219 111.015625 Z M 193.046875 123.078125 C 194.246094 124.320312 195.519531 125.472656 196.871094 126.542969 C 197.109375 158.90625 211.570312 169.414062 221.375 175.265625 C 212.648438 164.757812 204.160156 142.304688 206.550781 133.109375 C 228.785156 143.257812 234.28125 159.859375 235 167.265625 C 237.148438 164.757812 238.105469 156.996094 238.347656 154.371094 C 246.710938 171.683594 231.53125 197.480469 227.46875 199.988281 C 232.488281 181.121094 178.820312 168.21875 193.046875 123.078125 Z M 213.507812 183.472656 C 214.464844 195.730469 214.046875 215.480469 187.429688 227.421875 C 160.816406 215.480469 160.402344 195.730469 161.355469 183.472656 C 176.976562 171.050781 185.199219 159.421875 187.429688 153.050781 C 189.664062 159.425781 197.890625 171.050781 213.507812 183.472656 Z M 181.816406 123.078125 C 196.039062 168.21875 142.375 181.121094 147.394531 199.988281 C 143.332031 197.480469 128.148438 171.683594 136.519531 154.371094 C 136.757812 156.996094 137.714844 164.757812 139.867188 167.265625 C 140.582031 159.859375 146.078125 143.257812 168.3125 133.109375 C 170.703125 142.304688 162.214844 164.757812 153.488281 175.265625 C 163.289062 169.414062 177.753906 158.90625 177.992188 126.542969 C 179.34375 125.472656 180.621094 124.320312 181.816406 123.078125 Z M 116.917969 111.015625 C 127.792969 91.789062 162.574219 108.148438 173.332031 105.164062 C 172.160156 106.839844 170.804688 108.351562 169.261719 109.691406 C 167.714844 111.035156 166.03125 112.171875 164.207031 113.097656 C 162.382812 114.023438 160.472656 114.714844 158.476562 115.171875 C 156.480469 115.628906 154.460938 115.835938 152.414062 115.792969 C 143.558594 115.792969 133.648438 105.285156 124.921875 109.460938 C 130.542969 108.746094 134.84375 116.515625 143.570312 118.894531 C 126.71875 120.570312 123.132812 110.417969 116.917969 111.015625 Z M 100.78125 179.8125 C 86.792969 133.472656 144.289062 127.863281 157.078125 122.605469 C 147.03125 132.398438 122.652344 131.085938 116.316406 150.789062 C 124.921875 137.304688 152.535156 133.832031 164.367188 127.027344 C 157.914062 139.4375 106.277344 151.859375 100.78125 179.8125 Z M 120.023438 218.625 C 115.472656 212.894531 99.824219 172.289062 131.496094 153.0625 C 130.300781 157 127.914062 176.351562 131.257812 183.035156 C 128.148438 186.742188 120.261719 196.171875 121.695312 206.207031 C 122.828125 202.878906 124.472656 199.824219 126.621094 197.039062 C 128.773438 194.257812 131.316406 191.898438 134.253906 189.964844 C 134.847656 191.039062 135.808594 193.308594 136.761719 194.859375 C 131.855469 198.078125 120.738281 211.097656 120.023438 218.621094 Z M 157.078125 256.007812 C 151.582031 252.546875 124.085938 225.675781 140.820312 200.234375 C 144.425781 204.265625 148.492188 207.765625 153.011719 210.738281 C 153.011719 210.738281 147.992188 200.828125 152.652344 194.5 C 152.75 200.402344 154.105469 211.242188 167.394531 221.75 C 165.074219 230.3125 156.6875 234.175781 155.398438 241.667969 C 152.769531 240.953125 142.496094 232.589844 141.058594 223.15625 C 138.910156 237.25 154.804688 245.367188 155.164062 249.074219 C 158.398438 240.671875 170.640625 235.070312 173.371094 225.910156 C 175.050781 226.957031 176.863281 227.988281 178.828125 229.007812 C 177.15625 234.507812 157.433594 246.929688 157.078125 256.003906 Z M 187.433594 276.78125 C 168.070312 268.066406 169.625 253.261719 169.746094 246.566406 C 173.929688 242.980469 181.699219 232.714844 183.015625 230.570312 C 183.015625 230.570312 186.359375 232.121094 187.433594 232.480469 C 188.507812 232.121094 191.851562 230.570312 191.851562 230.570312 C 193.167969 232.71875 200.9375 242.988281 205.121094 246.566406 C 205.238281 253.253906 206.796875 268.066406 187.433594 276.78125 Z M 217.789062 256.003906 C 217.429688 246.925781 197.707031 234.507812 196.035156 229.011719 C 198.003906 227.992188 199.8125 226.957031 201.496094 225.914062 C 204.226562 235.074219 216.464844 240.675781 219.699219 249.078125 C 220.058594 245.371094 235.957031 237.253906 233.804688 223.160156 C 232.371094 232.59375 222.089844 240.953125 219.460938 241.671875 C 218.175781 234.171875 209.792969 230.3125 207.472656 221.753906 C 220.761719 211.25 222.117188 200.40625 222.210938 194.5 C 226.875 200.832031 221.855469 210.742188 221.855469 210.742188 C 226.375 207.769531 230.4375 204.269531 234.046875 200.238281 C 250.777344 225.667969 223.285156 252.539062 217.789062 256.003906 Z M 254.839844 218.621094 C 254.125 211.09375 243.011719 198.078125 238.109375 194.851562 C 239.0625 193.304688 240.019531 191.03125 240.621094 189.957031 C 243.554688 191.894531 246.097656 194.253906 248.246094 197.035156 C 250.394531 199.816406 252.035156 202.871094 253.164062 206.199219 C 254.601562 196.164062 246.714844 186.734375 243.605469 183.03125 C 246.953125 176.34375 244.5625 157 243.367188 153.054688 C 275.039062 172.285156 259.382812 212.886719 254.839844 218.621094 Z M 210.503906 127.019531 C 222.335938 133.824219 249.945312 137.289062 258.546875 150.785156 C 252.214844 131.078125 227.832031 132.390625 217.792969 122.597656 C 230.578125 127.855469 288.070312 133.46875 274.089844 179.804688 C 268.585938 151.859375 216.949219 139.4375 210.503906 127.019531 Z M 210.503906 127.019531 " fill-opacity="1" fill-rule="nonzero"/></g><path fill="rgb(0%, 0%, 0%)" d="M 187.433594 266.753906 C 182.722656 265.636719 176.320312 260.382812 174.09375 253.535156 C 173.777344 261.339844 179.382812 268.664062 187.433594 271.371094 C 195.480469 268.664062 201.085938 261.332031 200.773438 253.535156 C 198.542969 260.382812 192.140625 265.636719 187.433594 266.753906 Z M 187.433594 266.753906 " fill-opacity="1" fill-rule="nonzero"/><g clip-path="url(#id22)"><path fill="rgb(65.489197%, 57.249451%, 44.709778%)" d="M 286.878906 161.082031 L 374.628906 161.082031 L 374.628906 162.195312 L 286.878906 162.195312 Z M 286.878906 161.082031 " fill-opacity="1" fill-rule="nonzero"/></g><g clip-path="url(#id23)"><path fill="rgb(65.489197%, 57.249451%, 44.709778%)" d="M 286.878906 213.179688 L 374.628906 213.179688 L 374.628906 214.296875 L 286.878906 214.296875 Z M 286.878906 213.179688 " fill-opacity="1" fill-rule="nonzero"/></g><g clip-path="url(#id24)"><path fill="rgb(65.489197%, 57.249451%, 44.709778%)" d="M 0.878906 161.078125 L 87.878906 161.078125 L 87.878906 162.175781 L 0.878906 162.175781 Z M 0.878906 161.078125 " fill-opacity="1" fill-rule="nonzero"/></g><g clip-path="url(#id25)"><path fill="rgb(65.489197%, 57.249451%, 44.709778%)" d="M 0.878906 212.449219 L 87.878906 212.449219 L 87.878906 213.550781 L 0.878906 213.550781 Z M 0.878906 212.449219 " fill-opacity="1" fill-rule="nonzero"/></g><path fill="rgb(88.62915%, 84.309387%, 76.858521%)" d="M 37.542969 279.050781 C 35.679688 279.050781 34.167969 280.5625 34.167969 282.425781 C 34.167969 284.289062 35.679688 285.800781 37.542969 285.800781 C 39.40625 285.800781 40.917969 284.289062 40.917969 282.425781 C 40.917969 280.5625 39.40625 279.050781 37.542969 279.050781 " fill-opacity="1" fill-rule="nonzero"/><path fill="rgb(88.62915%, 84.309387%, 76.858521%)" d="M 37.542969 88.261719 C 35.679688 88.261719 34.167969 89.773438 34.167969 91.636719 C 34.167969 93.5 35.679688 95.011719 37.542969 95.011719 C 39.40625 95.011719 40.917969 93.5 40.917969 91.636719 C 40.917969 89.773438 39.40625 88.261719 37.542969 88.261719 " fill-opacity="1" fill-rule="nonzero"/><path fill="rgb(88.62915%, 84.309387%, 76.858521%)" d="M 337.242188 279.050781 C 335.378906 279.050781 333.867188 280.5625 333.867188 282.425781 C 333.867188 284.289062 335.378906 285.800781 337.242188 285.800781 C 339.105469 285.800781 340.617188 284.289062 340.617188 282.425781 C 340.617188 280.5625 339.105469 279.050781 337.242188 279.050781 " fill-opacity="1" fill-rule="nonzero"/><path fill="rgb(88.62915%, 84.309387%, 76.858521%)" d="M 337.242188 88.261719 C 335.378906 88.261719 333.867188 89.773438 333.867188 91.636719 C 333.867188 93.5 335.378906 95.011719 337.242188 95.011719 C 339.105469 95.011719 340.617188 93.5 340.617188 91.636719 C 340.617188 89.773438 339.105469 88.261719 337.242188 88.261719 " fill-opacity="1" fill-rule="nonzero"/><g fill="rgb(88.62915%, 84.309387%, 76.858521%)" fill-opacity="1"><g transform="translate(81.451323, 75.714747)"><g><path d="M -0.5 -31.875 C 2.625 -33.46875 5.703125 -33.78125 8.734375 -32.8125 C 11.765625 -31.84375 14.070312 -29.796875 15.65625 -26.671875 L 17.8125 -22.4375 C 19.40625 -19.3125 19.691406 -16.242188 18.671875 -13.234375 C 17.660156 -10.222656 15.59375 -7.921875 12.46875 -6.328125 L 0.984375 -0.5 L -0.578125 -3.5625 L 1.875 -5.46875 L -7.4375 -23.796875 L -10.421875 -22.953125 L -11.984375 -26.046875 L -9.265625 -27.421875 Z M -2.15625 -26.078125 L 6.8125 -8.40625 L 10.203125 -10.125 C 12.046875 -11.050781 13.171875 -12.398438 13.578125 -14.171875 C 13.984375 -15.941406 13.679688 -17.828125 12.671875 -19.828125 L 10.515625 -24.09375 C 9.503906 -26.070312 8.164062 -27.414062 6.5 -28.125 C 4.832031 -28.832031 3.078125 -28.722656 1.234375 -27.796875 Z M -2.15625 -26.078125 "/></g></g></g><g fill="rgb(88.62915%, 84.309387%, 76.858521%)" fill-opacity="1"><g transform="translate(114.123256, 60.034977)"><g><path d="M 15.015625 -17.796875 L 5.75 -14.9375 L 8.15625 -7.125 L 17 -9.859375 L 16.25 -13.203125 L 20.421875 -14.484375 L 22.71875 -7 L 1.0625 -0.328125 L 0.046875 -3.609375 L 2.78125 -5.078125 L -3.265625 -24.71875 L -6.34375 -24.40625 L -7.375 -27.71875 L -4.46875 -28.609375 L 14.25 -34.375 L 16.5625 -26.859375 L 12.34375 -25.5625 L 11.09375 -28.75 L 2.328125 -26.046875 L 4.4375 -19.171875 L 13.703125 -22.03125 Z M 15.015625 -17.796875 "/></g></g></g><g fill="rgb(88.62915%, 84.309387%, 76.858521%)" fill-opacity="1"><g transform="translate(146.975084, 50.545843)"><g><path d="M 0.671875 -3.546875 L 3.625 -4.515625 L 1.046875 -24.921875 L -2.046875 -25.125 L -2.484375 -28.578125 L 9.140625 -30.03125 L 9.578125 -26.578125 L 6.734375 -25.640625 L 7.703125 -18.03125 L 10.1875 -18.34375 L 14.640625 -26.984375 L 12.953125 -27.015625 L 12.515625 -30.46875 L 23.765625 -31.875 L 24.203125 -28.421875 L 21.1875 -27.53125 L 15.359375 -17.296875 L 24.640625 -7.078125 L 27.5625 -6.9375 L 27.984375 -3.53125 L 16.71875 -2.109375 L 16.296875 -5.515625 L 18.015625 -5.96875 L 11.5 -13.515625 L 8.3125 -13.109375 L 9.3125 -5.234375 L 12.296875 -5 L 12.71875 -1.59375 L 1.09375 -0.140625 Z M 0.671875 -3.546875 "/></g></g></g><g fill="rgb(88.62915%, 84.309387%, 76.858521%)" fill-opacity="1"><g transform="translate(184.025655, 46.752579)"><g><path d="M 20.1875 -11.640625 L 10.484375 -12.109375 L 10.09375 -3.9375 L 19.34375 -3.484375 L 19.765625 -6.875 L 24.109375 -6.671875 L 23.734375 1.140625 L 1.109375 0.046875 L 1.28125 -3.390625 L 4.34375 -3.828125 L 5.34375 -24.359375 L 2.328125 -25.109375 L 2.484375 -28.578125 L 5.53125 -28.421875 L 25.078125 -27.484375 L 24.703125 -19.625 L 20.3125 -19.828125 L 20.21875 -23.265625 L 11.046875 -23.71875 L 10.6875 -16.53125 L 20.390625 -16.0625 Z M 20.1875 -11.640625 "/></g></g></g><g fill="rgb(88.62915%, 84.309387%, 76.858521%)" fill-opacity="1"><g transform="translate(218.176436, 49.042694)"><g><path d="M 19.875 -24.9375 C 23.039062 -24.226562 25.367188 -22.941406 26.859375 -21.078125 C 28.347656 -19.222656 28.804688 -17.015625 28.234375 -14.453125 C 27.921875 -13.035156 27.265625 -11.894531 26.265625 -11.03125 C 25.273438 -10.164062 23.976562 -9.578125 22.375 -9.265625 C 23.925781 -8.410156 24.9375 -7.335938 25.40625 -6.046875 C 25.875 -4.753906 25.921875 -3.269531 25.546875 -1.59375 L 25.21875 -0.15625 C 25.082031 0.445312 25.097656 0.945312 25.265625 1.34375 C 25.441406 1.75 25.804688 2.039062 26.359375 2.21875 L 27.03125 2.46875 L 26.28125 5.859375 L 23.375 5.203125 C 21.539062 4.796875 20.359375 4.015625 19.828125 2.859375 C 19.304688 1.710938 19.222656 0.351562 19.578125 -1.21875 L 19.921875 -2.796875 C 20.222656 -4.160156 20.097656 -5.304688 19.546875 -6.234375 C 19.003906 -7.171875 18.078125 -7.804688 16.765625 -8.140625 L 12.171875 -9.15625 L 10.53125 -1.78125 L 13.40625 -0.546875 L 12.65625 2.8125 L 1.078125 0.234375 L 1.828125 -3.125 L 4.9375 -3.03125 L 9.40625 -23.09375 L 6.546875 -24.34375 L 7.3125 -27.734375 L 10.296875 -27.0625 Z M 13.140625 -13.46875 L 17.03125 -12.609375 C 18.582031 -12.265625 19.820312 -12.335938 20.75 -12.828125 C 21.675781 -13.316406 22.28125 -14.1875 22.5625 -15.4375 C 22.84375 -16.695312 22.679688 -17.785156 22.078125 -18.703125 C 21.472656 -19.628906 20.414062 -20.265625 18.90625 -20.609375 L 14.921875 -21.484375 Z M 13.140625 -13.46875 "/></g></g></g><g fill="rgb(88.62915%, 84.309387%, 76.858521%)" fill-opacity="1"><g transform="translate(253.740589, 58.219322)"><g><path d="M 15.015625 -21.546875 L 11.765625 -16.796875 L 9.390625 -17.671875 L 13.140625 -27.875 L 16.828125 -26.515625 Z M 15.015625 -21.546875 "/></g></g></g><g fill="rgb(88.62915%, 84.309387%, 76.858521%)" fill-opacity="1"><g transform="translate(270.6387, 64.519528)"><g><path d="M 29.25 -6.8125 L 25.421875 -8.796875 L 26.59375 -12.625 C 26.289062 -13.132812 25.765625 -13.710938 25.015625 -14.359375 C 24.273438 -15.015625 23.429688 -15.585938 22.484375 -16.078125 C 21.085938 -16.804688 19.851562 -17.070312 18.78125 -16.875 C 17.707031 -16.675781 16.929688 -16.109375 16.453125 -15.171875 C 16.003906 -14.316406 16.035156 -13.40625 16.546875 -12.4375 C 17.054688 -11.476562 18.132812 -10.1875 19.78125 -8.5625 C 22.1875 -6.320312 23.78125 -4.179688 24.5625 -2.140625 C 25.34375 -0.109375 25.195312 1.945312 24.125 4.03125 C 23 6.207031 21.25 7.472656 18.875 7.828125 C 16.5 8.191406 13.898438 7.644531 11.078125 6.1875 C 9.066406 5.144531 7.410156 3.882812 6.109375 2.40625 C 4.816406 0.9375 3.925781 -0.644531 3.4375 -2.34375 L 6.171875 -7.65625 L 10.125 -5.609375 L 8.8125 -1.703125 C 9.101562 -1.023438 9.613281 -0.328125 10.34375 0.390625 C 11.082031 1.117188 11.992188 1.765625 13.078125 2.328125 C 14.472656 3.046875 15.679688 3.3125 16.703125 3.125 C 17.734375 2.9375 18.5 2.363281 19 1.40625 C 19.5 0.425781 19.554688 -0.535156 19.171875 -1.484375 C 18.785156 -2.441406 17.851562 -3.628906 16.375 -5.046875 C 13.820312 -7.484375 12.078125 -9.703125 11.140625 -11.703125 C 10.210938 -13.703125 10.289062 -15.75 11.375 -17.84375 C 12.4375 -19.90625 14.179688 -21.140625 16.609375 -21.546875 C 19.035156 -21.953125 21.582031 -21.488281 24.25 -20.15625 C 26.207031 -19.144531 27.835938 -17.925781 29.140625 -16.5 C 30.441406 -15.070312 31.378906 -13.582031 31.953125 -12.03125 Z M 29.25 -6.8125 "/></g></g></g><g fill="rgb(88.62915%, 84.309387%, 76.858521%)" fill-opacity="1"><g transform="translate(46.927523, 303.494693)"><g><path d="M 24.390625 -0.8125 L 21.65625 -2.78125 L 23.0625 -5.484375 C 22.957031 -6.097656 22.703125 -6.707031 22.296875 -7.3125 C 21.898438 -7.914062 21.328125 -8.488281 20.578125 -9.03125 C 18.992188 -10.175781 17.359375 -10.476562 15.671875 -9.9375 C 13.984375 -9.40625 12.46875 -8.207031 11.125 -6.34375 L 10.671875 -5.71875 C 9.328125 -3.851562 8.664062 -2.03125 8.6875 -0.25 C 8.707031 1.519531 9.492188 2.960938 11.046875 4.078125 C 11.773438 4.609375 12.507812 4.984375 13.25 5.203125 C 13.988281 5.421875 14.65625 5.46875 15.25 5.34375 L 17.375 3.1875 L 20.109375 5.15625 L 17.5 8.765625 C 16.144531 9.085938 14.710938 9.085938 13.203125 8.765625 C 11.703125 8.453125 10.25 7.785156 8.84375 6.765625 C 6.382812 5.003906 4.984375 2.710938 4.640625 -0.109375 C 4.296875 -2.941406 5.082031 -5.691406 7 -8.359375 L 7.4375 -8.96875 C 9.351562 -11.613281 11.707031 -13.226562 14.5 -13.8125 C 17.289062 -14.394531 19.921875 -13.800781 22.390625 -12.03125 C 23.796875 -11.007812 24.878906 -9.832031 25.640625 -8.5 C 26.398438 -7.164062 26.851562 -5.804688 27 -4.421875 Z M 24.390625 -0.8125 "/></g></g></g><g fill="rgb(88.62915%, 84.309387%, 76.858521%)" fill-opacity="1"><g transform="translate(73.284682, 321.492618)"><g><path d="M 18.234375 -1.578125 L 11.5 -5.125 L 8.5 0.5625 L 14.921875 3.953125 L 16.375 1.65625 L 19.40625 3.25 L 16.53125 8.703125 L 0.765625 0.40625 L 2.03125 -1.984375 L 4.375 -1.296875 L 11.890625 -15.59375 L 9.984375 -17.109375 L 11.25 -19.515625 L 13.375 -18.40625 L 27 -11.234375 L 24.125 -5.78125 L 21.046875 -7.390625 L 22.125 -9.859375 L 15.75 -13.21875 L 13.125 -8.203125 L 19.859375 -4.65625 Z M 18.234375 -1.578125 "/></g></g></g><g fill="rgb(88.62915%, 84.309387%, 76.858521%)" fill-opacity="1"><g transform="translate(101.648471, 335.563807)"><g><path d="M 17.890625 -17.53125 C 20.296875 -16.675781 21.988281 -15.453125 22.96875 -13.859375 C 23.945312 -12.273438 24.085938 -10.507812 23.390625 -8.5625 C 23.015625 -7.5 22.398438 -6.675781 21.546875 -6.09375 C 20.691406 -5.507812 19.628906 -5.175781 18.359375 -5.09375 C 19.472656 -4.269531 20.148438 -3.328125 20.390625 -2.265625 C 20.628906 -1.210938 20.523438 -0.046875 20.078125 1.234375 L 19.6875 2.296875 C 19.519531 2.765625 19.484375 3.160156 19.578125 3.484375 C 19.679688 3.804688 19.9375 4.066406 20.34375 4.265625 L 20.84375 4.53125 L 19.9375 7.09375 L 17.734375 6.3125 C 16.347656 5.8125 15.503906 5.085938 15.203125 4.140625 C 14.898438 3.203125 14.957031 2.140625 15.375 0.953125 L 15.8125 -0.25 C 16.175781 -1.28125 16.1875 -2.1875 15.84375 -2.96875 C 15.507812 -3.757812 14.847656 -4.347656 13.859375 -4.734375 L 10.375 -5.96875 L 8.390625 -0.375 L 10.5 0.875 L 9.59375 3.421875 L 0.8125 0.28125 L 1.71875 -2.265625 L 4.140625 -1.890625 L 9.5625 -17.109375 L 7.453125 -18.375 L 8.359375 -20.9375 L 10.625 -20.125 Z M 11.546875 -9.25 L 14.5 -8.203125 C 15.6875 -7.785156 16.664062 -7.722656 17.4375 -8.015625 C 18.207031 -8.304688 18.757812 -8.929688 19.09375 -9.890625 C 19.4375 -10.835938 19.414062 -11.695312 19.03125 -12.46875 C 18.644531 -13.25 17.875 -13.84375 16.71875 -14.25 L 13.703125 -15.328125 Z M 11.546875 -9.25 "/></g></g></g><g fill="rgb(88.62915%, 84.309387%, 76.858521%)" fill-opacity="1"><g transform="translate(133.268494, 345.94137)"><g><path d="M 12.390625 -17.734375 L 10.640625 -17.78125 L 11.984375 -3.75 L 12.015625 -2.484375 L 12.078125 -2.46875 L 12.578125 -3.609375 L 19.109375 -16.109375 L 17.5 -16.734375 L 18.03125 -19.40625 L 26.109375 -17.828125 L 25.578125 -15.15625 L 23.6875 -15.28125 L 13.421875 2.625 L 8.859375 1.734375 L 6.078125 -18.734375 L 4.3125 -19.3125 L 4.84375 -21.984375 L 12.921875 -20.40625 Z M 12.390625 -17.734375 "/></g></g></g><g fill="rgb(88.62915%, 84.309387%, 76.858521%)" fill-opacity="1"><g transform="translate(166.95233, 351.594922)"><g><path d="M 15.875 -9.125 L 8.25 -9.5 L 7.9375 -3.09375 L 15.203125 -2.75 L 15.53125 -5.421875 L 18.96875 -5.25 L 18.671875 0.90625 L 0.859375 0.046875 L 0.984375 -2.65625 L 3.421875 -3.015625 L 4.203125 -19.15625 L 1.8125 -19.734375 L 1.953125 -22.4375 L 4.359375 -22.328125 L 19.734375 -21.578125 L 19.421875 -15.421875 L 15.953125 -15.59375 L 15.890625 -18.296875 L 8.6875 -18.640625 L 8.40625 -12.984375 L 16.03125 -12.609375 Z M 15.875 -9.125 "/></g></g></g><g fill="rgb(88.62915%, 84.309387%, 76.858521%)" fill-opacity="1"><g transform="translate(198.567005, 352.335184)"><g><path d="M 17.875 -16.625 L 14.53125 -16.3125 L 13.796875 -19.265625 C 13.304688 -19.671875 12.71875 -19.96875 12.03125 -20.15625 C 11.34375 -20.351562 10.535156 -20.410156 9.609375 -20.328125 C 7.660156 -20.148438 6.222656 -19.300781 5.296875 -17.78125 C 4.378906 -16.269531 4.023438 -14.375 4.234375 -12.09375 L 4.296875 -11.3125 C 4.503906 -9.03125 5.195312 -7.222656 6.375 -5.890625 C 7.5625 -4.566406 9.109375 -3.988281 11.015625 -4.15625 C 11.910156 -4.238281 12.707031 -4.441406 13.40625 -4.765625 C 14.113281 -5.085938 14.648438 -5.492188 15.015625 -5.984375 L 15.203125 -9 L 18.546875 -9.3125 L 18.953125 -4.875 C 18.140625 -3.75 17.0625 -2.804688 15.71875 -2.046875 C 14.375 -1.296875 12.835938 -0.84375 11.109375 -0.6875 C 8.097656 -0.414062 5.535156 -1.234375 3.421875 -3.140625 C 1.304688 -5.046875 0.0976562 -7.632812 -0.203125 -10.90625 L -0.265625 -11.65625 C -0.566406 -14.914062 0.140625 -17.675781 1.859375 -19.9375 C 3.578125 -22.207031 5.953125 -23.484375 8.984375 -23.765625 C 10.710938 -23.921875 12.300781 -23.742188 13.75 -23.234375 C 15.207031 -22.734375 16.445312 -22.007812 17.46875 -21.0625 Z M 17.875 -16.625 "/></g></g></g><g fill="rgb(88.62915%, 84.309387%, 76.858521%)" fill-opacity="1"><g transform="translate(230.265292, 348.613618)"><g><path d="M 12.734375 -13.15625 L 5.3125 -11.40625 L 6.78125 -5.15625 L 13.84375 -6.828125 L 13.4375 -9.484375 L 16.78125 -10.265625 L 18.1875 -4.28125 L 0.84375 -0.203125 L 0.21875 -2.828125 L 2.4375 -3.84375 L -1.265625 -19.5625 L -3.703125 -19.46875 L -4.328125 -22.125 L -2 -22.671875 L 12.984375 -26.203125 L 14.40625 -20.1875 L 11.03125 -19.390625 L 10.21875 -21.96875 L 3.21875 -20.3125 L 4.515625 -14.796875 L 11.9375 -16.546875 Z M 12.734375 -13.15625 "/></g></g></g><g fill="rgb(88.62915%, 84.309387%, 76.858521%)" fill-opacity="1"><g transform="translate(260.899681, 340.611529)"><g><path d="M 1.984375 -24.96875 C 4.359375 -25.90625 6.4375 -26.09375 8.21875 -25.53125 C 10.007812 -24.976562 11.28125 -23.742188 12.03125 -21.828125 C 12.4375 -20.773438 12.507812 -19.742188 12.25 -18.734375 C 11.988281 -17.734375 11.410156 -16.785156 10.515625 -15.890625 C 11.890625 -15.992188 13.015625 -15.726562 13.890625 -15.09375 C 14.765625 -14.457031 15.453125 -13.507812 15.953125 -12.25 L 16.359375 -11.1875 C 16.535156 -10.738281 16.769531 -10.421875 17.0625 -10.234375 C 17.351562 -10.046875 17.71875 -10.015625 18.15625 -10.140625 L 18.6875 -10.265625 L 19.6875 -7.734375 L 17.53125 -6.875 C 16.144531 -6.34375 15.023438 -6.332031 14.171875 -6.84375 C 13.328125 -7.363281 12.675781 -8.210938 12.21875 -9.390625 L 11.75 -10.578125 C 11.351562 -11.597656 10.769531 -12.289062 10 -12.65625 C 9.226562 -13.03125 8.34375 -13.035156 7.34375 -12.671875 L 3.921875 -11.328125 L 6.09375 -5.796875 L 8.5 -6.234375 L 9.484375 -3.71875 L 0.796875 -0.3125 L -0.1875 -2.828125 L 1.890625 -4.140625 L -4.015625 -19.171875 L -6.4375 -18.734375 L -7.4375 -21.265625 L -5.1875 -22.140625 Z M 2.640625 -14.5625 L 5.546875 -15.703125 C 6.710938 -16.160156 7.488281 -16.753906 7.875 -17.484375 C 8.269531 -18.210938 8.28125 -19.046875 7.90625 -19.984375 C 7.539062 -20.929688 6.957031 -21.570312 6.15625 -21.90625 C 5.363281 -22.238281 4.398438 -22.179688 3.265625 -21.734375 L 0.296875 -20.5625 Z M 2.640625 -14.5625 "/></g></g></g><g fill="rgb(88.62915%, 84.309387%, 76.858521%)" fill-opacity="1"><g transform="translate(291.165235, 327.648027)"><g><path d="M -8.671875 -17.828125 L -9.953125 -20.21875 L -1.75 -24.65625 L -0.46875 -22.265625 L -2.359375 -20.6875 L 5.3125 -6.484375 L 7.671875 -7.21875 L 8.953125 -4.84375 L 0.75 -0.40625 L -0.53125 -2.78125 L 1.359375 -4.34375 L -6.3125 -18.546875 Z M -8.671875 -17.828125 "/></g></g></g><g fill="rgb(88.62915%, 84.309387%, 76.858521%)" fill-opacity="1"><g transform="translate(310.569978, 316.78146)"><g><path d="M -1.046875 -2.578125 L 0.125 -3.703125 L -5.65625 -23.609375 L -1.890625 -26.296875 L 15 -14.296875 L 16.453125 -15.046875 L 18.015625 -12.84375 L 11.765625 -8.390625 L 10.203125 -10.59375 L 11.3125 -11.734375 L 8.703125 -13.671875 L 2.765625 -9.4375 L 3.765625 -6.359375 L 5.1875 -7.015625 L 6.75 -4.8125 L 0.515625 -0.375 Z M 1.703125 -12.765625 L 5.921875 -15.765625 L -0.765625 -20.75 L -0.84375 -20.703125 Z M 1.703125 -12.765625 "/></g></g></g><g fill="rgb(19.999695%, 19.999695%, 19.999695%)" fill-opacity="1"><g transform="translate(300.004957, 193.476845)"><g><path d="M 0.6875 0 L 0.6875 -1.8125 L 5.15625 -6.59375 C 5.800781 -7.332031 6.257812 -7.957031 6.53125 -8.46875 C 6.800781 -8.976562 6.9375 -9.453125 6.9375 -9.890625 C 6.9375 -10.472656 6.78125 -10.945312 6.46875 -11.3125 C 6.15625 -11.6875 5.710938 -11.875 5.140625 -11.875 C 4.503906 -11.875 4.019531 -11.65625 3.6875 -11.21875 C 3.351562 -10.789062 3.1875 -10.21875 3.1875 -9.5 L 0.5 -9.5 L 0.46875 -9.546875 C 0.4375 -10.796875 0.847656 -11.847656 1.703125 -12.703125 C 2.554688 -13.566406 3.703125 -14 5.140625 -14 C 6.566406 -14 7.6875 -13.628906 8.5 -12.890625 C 9.3125 -12.148438 9.71875 -11.164062 9.71875 -9.9375 C 9.71875 -9.101562 9.488281 -8.332031 9.03125 -7.625 C 8.570312 -6.914062 7.8125 -5.992188 6.75 -4.859375 L 4.296875 -2.171875 L 4.3125 -2.125 L 7.90625 -2.125 L 8.015625 -3.484375 L 10.125 -3.484375 L 10.125 0 Z M 0.6875 0 "/></g></g></g><g fill="rgb(19.999695%, 19.999695%, 19.999695%)" fill-opacity="1"><g transform="translate(316.933215, 193.476845)"><g><path d="M 10.265625 -5.375 C 10.265625 -3.550781 9.84375 -2.164062 9 -1.21875 C 8.164062 -0.269531 7.035156 0.203125 5.609375 0.203125 C 4.160156 0.203125 3.015625 -0.269531 2.171875 -1.21875 C 1.335938 -2.164062 0.921875 -3.550781 0.921875 -5.375 L 0.921875 -8.421875 C 0.921875 -10.242188 1.335938 -11.628906 2.171875 -12.578125 C 3.015625 -13.523438 4.148438 -14 5.578125 -14 C 7.015625 -14 8.15625 -13.523438 9 -12.578125 C 9.84375 -11.628906 10.265625 -10.242188 10.265625 -8.421875 Z M 7.5 -8.703125 C 7.5 -9.796875 7.332031 -10.597656 7 -11.109375 C 6.675781 -11.617188 6.203125 -11.875 5.578125 -11.875 C 4.953125 -11.875 4.476562 -11.617188 4.15625 -11.109375 C 3.832031 -10.609375 3.671875 -9.804688 3.671875 -8.703125 L 3.671875 -5.109375 C 3.671875 -3.992188 3.832031 -3.179688 4.15625 -2.671875 C 4.488281 -2.171875 4.972656 -1.921875 5.609375 -1.921875 C 6.222656 -1.921875 6.691406 -2.171875 7.015625 -2.671875 C 7.335938 -3.179688 7.5 -3.992188 7.5 -5.109375 Z M 7.5 -8.703125 "/></g></g></g><g fill="rgb(19.999695%, 19.999695%, 19.999695%)" fill-opacity="1"><g transform="translate(334.221684, 193.476845)"><g><path d="M 0.6875 0 L 0.6875 -1.8125 L 5.15625 -6.59375 C 5.800781 -7.332031 6.257812 -7.957031 6.53125 -8.46875 C 6.800781 -8.976562 6.9375 -9.453125 6.9375 -9.890625 C 6.9375 -10.472656 6.78125 -10.945312 6.46875 -11.3125 C 6.15625 -11.6875 5.710938 -11.875 5.140625 -11.875 C 4.503906 -11.875 4.019531 -11.65625 3.6875 -11.21875 C 3.351562 -10.789062 3.1875 -10.21875 3.1875 -9.5 L 0.5 -9.5 L 0.46875 -9.546875 C 0.4375 -10.796875 0.847656 -11.847656 1.703125 -12.703125 C 2.554688 -13.566406 3.703125 -14 5.140625 -14 C 6.566406 -14 7.6875 -13.628906 8.5 -12.890625 C 9.3125 -12.148438 9.71875 -11.164062 9.71875 -9.9375 C 9.71875 -9.101562 9.488281 -8.332031 9.03125 -7.625 C 8.570312 -6.914062 7.8125 -5.992188 6.75 -4.859375 L 4.296875 -2.171875 L 4.3125 -2.125 L 7.90625 -2.125 L 8.015625 -3.484375 L 10.125 -3.484375 L 10.125 0 Z M 0.6875 0 "/></g></g></g><g fill="rgb(19.999695%, 19.999695%, 19.999695%)" fill-opacity="1"><g transform="translate(351.149942, 193.476845)"><g><path d="M 0.6875 0 L 0.6875 -1.8125 L 5.15625 -6.59375 C 5.800781 -7.332031 6.257812 -7.957031 6.53125 -8.46875 C 6.800781 -8.976562 6.9375 -9.453125 6.9375 -9.890625 C 6.9375 -10.472656 6.78125 -10.945312 6.46875 -11.3125 C 6.15625 -11.6875 5.710938 -11.875 5.140625 -11.875 C 4.503906 -11.875 4.019531 -11.65625 3.6875 -11.21875 C 3.351562 -10.789062 3.1875 -10.21875 3.1875 -9.5 L 0.5 -9.5 L 0.46875 -9.546875 C 0.4375 -10.796875 0.847656 -11.847656 1.703125 -12.703125 C 2.554688 -13.566406 3.703125 -14 5.140625 -14 C 6.566406 -14 7.6875 -13.628906 8.5 -12.890625 C 9.3125 -12.148438 9.71875 -11.164062 9.71875 -9.9375 C 9.71875 -9.101562 9.488281 -8.332031 9.03125 -7.625 C 8.570312 -6.914062 7.8125 -5.992188 6.75 -4.859375 L 4.296875 -2.171875 L 4.3125 -2.125 L 7.90625 -2.125 L 8.015625 -3.484375 L 10.125 -3.484375 L 10.125 0 Z M 0.6875 0 "/></g></g></g><g fill="rgb(19.999695%, 19.999695%, 19.999695%)" fill-opacity="1"><g transform="translate(9.466669, 193.476845)"><g><path d="M 9.453125 -6.0625 L 4.765625 -6.0625 L 4.765625 -2.125 L 9.234375 -2.125 L 9.34375 -3.78125 L 11.453125 -3.78125 L 11.453125 0 L 0.53125 0 L 0.53125 -1.65625 L 2 -1.9375 L 2 -11.859375 L 0.53125 -12.140625 L 0.53125 -13.8125 L 11.4375 -13.8125 L 11.4375 -10.03125 L 9.3125 -10.03125 L 9.1875 -11.671875 L 4.765625 -11.671875 L 4.765625 -8.203125 L 9.453125 -8.203125 Z M 9.453125 -6.0625 "/></g></g></g><g fill="rgb(19.999695%, 19.999695%, 19.999695%)" fill-opacity="1"><g transform="translate(28.063269, 193.476845)"><g><path d="M 11.015625 -9.390625 L 8.9375 -9.390625 L 8.578125 -11.296875 C 8.335938 -11.441406 7.988281 -11.570312 7.53125 -11.6875 C 7.070312 -11.800781 6.582031 -11.859375 6.0625 -11.859375 C 5.300781 -11.859375 4.710938 -11.695312 4.296875 -11.375 C 3.878906 -11.0625 3.671875 -10.648438 3.671875 -10.140625 C 3.671875 -9.679688 3.890625 -9.300781 4.328125 -9 C 4.765625 -8.695312 5.515625 -8.378906 6.578125 -8.046875 C 8.097656 -7.617188 9.25 -7.054688 10.03125 -6.359375 C 10.820312 -5.660156 11.21875 -4.75 11.21875 -3.625 C 11.21875 -2.4375 10.75 -1.5 9.8125 -0.8125 C 8.875 -0.132812 7.640625 0.203125 6.109375 0.203125 C 5.015625 0.203125 4.023438 0.03125 3.140625 -0.3125 C 2.265625 -0.664062 1.535156 -1.148438 0.953125 -1.765625 L 0.953125 -4.640625 L 3.09375 -4.640625 L 3.390625 -2.6875 C 3.660156 -2.457031 4.035156 -2.265625 4.515625 -2.109375 C 4.992188 -1.960938 5.523438 -1.890625 6.109375 -1.890625 C 6.867188 -1.890625 7.445312 -2.046875 7.84375 -2.359375 C 8.238281 -2.671875 8.4375 -3.085938 8.4375 -3.609375 C 8.4375 -4.140625 8.25 -4.566406 7.875 -4.890625 C 7.5 -5.210938 6.84375 -5.515625 5.90625 -5.796875 C 4.257812 -6.265625 3.015625 -6.820312 2.171875 -7.46875 C 1.335938 -8.125 0.921875 -9.019531 0.921875 -10.15625 C 0.921875 -11.269531 1.394531 -12.179688 2.34375 -12.890625 C 3.289062 -13.609375 4.484375 -13.976562 5.921875 -14 C 6.984375 -14 7.945312 -13.835938 8.8125 -13.515625 C 9.6875 -13.191406 10.421875 -12.757812 11.015625 -12.21875 Z M 11.015625 -9.390625 "/></g></g></g><g fill="rgb(19.999695%, 19.999695%, 19.999695%)" fill-opacity="1"><g transform="translate(46.034241, 193.476845)"><g><path d="M 12.6875 -13.8125 L 12.6875 -10.125 L 10.5625 -10.125 L 10.453125 -11.671875 L 7.90625 -11.671875 L 7.90625 -1.9375 L 9.390625 -1.65625 L 9.390625 0 L 3.65625 0 L 3.65625 -1.65625 L 5.140625 -1.9375 L 5.140625 -11.671875 L 2.609375 -11.671875 L 2.5 -10.125 L 0.375 -10.125 L 0.375 -13.8125 Z M 12.6875 -13.8125 "/></g></g></g><g fill="rgb(19.999695%, 19.999695%, 19.999695%)" fill-opacity="1"><g transform="translate(65.284917, 193.476845)"><g><path d="M 6.75 -13.8125 C 8.4375 -13.8125 9.828125 -13.269531 10.921875 -12.1875 C 12.015625 -11.113281 12.5625 -9.734375 12.5625 -8.046875 L 12.5625 -5.75 C 12.5625 -4.0625 12.015625 -2.679688 10.921875 -1.609375 C 9.828125 -0.535156 8.4375 0 6.75 0 L 0.53125 0 L 0.53125 -1.65625 L 2 -1.9375 L 2 -11.859375 L 0.53125 -12.140625 L 0.53125 -13.8125 Z M 4.765625 -11.671875 L 4.765625 -2.125 L 6.59375 -2.125 C 7.59375 -2.125 8.375 -2.457031 8.9375 -3.125 C 9.5 -3.800781 9.78125 -4.675781 9.78125 -5.75 L 9.78125 -8.0625 C 9.78125 -9.125 9.5 -9.988281 8.9375 -10.65625 C 8.375 -11.332031 7.59375 -11.671875 6.59375 -11.671875 Z M 4.765625 -11.671875 "/></g></g></g></svg>